<svg width="157" height="21" viewBox="0 0 157 21" fill="none" xmlns="http://www.w3.org/2000/svg">
<path d="M13.2122 6.41389C13.1367 5.68126 12.8005 5.1118 12.2037 4.70552C11.6145 4.29258 10.7722 4.08611 9.67688 4.08611C8.95168 4.08611 8.34735 4.16936 7.86388 4.33587C7.38041 4.50238 7.01781 4.73216 6.77608 5.02521C6.53435 5.31161 6.4097 5.64129 6.40215 6.01427C6.38704 6.32065 6.45503 6.59039 6.60611 6.8235C6.76475 7.05661 6.99137 7.26308 7.28599 7.44291C7.58815 7.61608 7.95075 7.76927 8.37379 7.90247C8.79682 8.03568 9.27273 8.15224 9.80152 8.25214L11.7958 8.65176C12.9441 8.87155 13.9563 9.16461 14.8326 9.53092C15.7164 9.89724 16.4567 10.3335 17.0535 10.8397C17.6579 11.3459 18.1149 11.9286 18.4246 12.588C18.7343 13.2474 18.893 13.9867 18.9005 14.8059C18.893 16.098 18.5228 17.2069 17.79 18.1327C17.0573 19.0585 16.0035 19.7678 14.6286 20.2607C13.2613 20.7536 11.6107 21 9.67688 21C7.73546 21 6.04333 20.7436 4.60048 20.2307C3.15764 19.7179 2.03585 18.9386 1.23511 17.893C0.434364 16.8473 0.0226625 15.5252 0 13.9267H5.37101C5.41633 14.5861 5.61652 15.1356 5.97156 15.5752C6.32661 16.0147 6.81385 16.3478 7.43329 16.5742C8.06029 16.8007 8.78549 16.9139 9.60889 16.9139C10.3643 16.9139 11.0064 16.824 11.5352 16.6441C12.0715 16.4643 12.4832 16.2146 12.7703 15.8949C13.0574 15.5752 13.2047 15.2088 13.2122 14.7959C13.2047 14.4096 13.0687 14.0799 12.8043 13.8069C12.5399 13.5271 12.132 13.2873 11.5805 13.0875C11.0366 12.8811 10.3416 12.6912 9.49558 12.5181L7.07069 12.0186C5.06129 11.6123 3.47869 10.9562 2.3229 10.0504C1.16712 9.13796 0.593002 7.9058 0.600556 6.35395C0.593002 5.08849 0.978264 3.97954 1.75634 3.02712C2.53442 2.07469 3.61089 1.33207 4.98575 0.79924C6.3606 0.266413 7.92809 0 9.68821 0C11.4861 0 13.046 0.269743 14.368 0.809229C15.6975 1.34206 16.7287 2.09134 17.4614 3.05709C18.1942 4.02284 18.5681 5.14177 18.5832 6.41389H13.2122Z" fill="#141414"/>
<path d="M35.7727 0.279734H41.3704V13.4772C41.3704 15.0024 40.9587 16.3311 40.1353 17.4634C39.3118 18.589 38.1636 19.4615 36.6906 20.0809C35.2175 20.6936 33.5065 21 31.5575 21C29.5859 21 27.8635 20.6936 26.3905 20.0809C24.9174 19.4615 23.7729 18.589 22.9571 17.4634C22.1412 16.3311 21.7333 15.0024 21.7333 13.4772V0.279734H27.3423V13.0476C27.3423 13.7536 27.516 14.383 27.8635 14.9358C28.2186 15.4886 28.7134 15.9215 29.3479 16.2345C29.9825 16.5476 30.719 16.7041 31.5575 16.7041C32.396 16.7041 33.1288 16.5476 33.7558 16.2345C34.3903 15.9215 34.8851 15.4886 35.2402 14.9358C35.5952 14.383 35.7727 13.7536 35.7727 13.0476V0.279734Z" fill="#141414"/>
<path d="M44.8859 20.7402V0.279734H54.5628C56.3002 0.279734 57.7544 0.496194 58.9253 0.929115C60.1037 1.36204 60.9876 1.96813 61.5768 2.74738C62.1736 3.52664 62.472 4.42912 62.472 5.45481C62.472 6.23406 62.2869 6.93007 61.9167 7.54282C61.5466 8.14891 61.0367 8.65176 60.387 9.05138C59.7374 9.451 58.9857 9.73073 58.1321 9.89058V10.0904C59.0688 10.1304 59.9338 10.3535 60.7269 10.7598C61.5277 11.166 62.1698 11.7322 62.6533 12.4581C63.1367 13.1775 63.3785 14.03 63.3785 15.0157C63.3785 16.1147 63.0612 17.097 62.4266 17.9629C61.7921 18.8221 60.8743 19.5014 59.6731 20.0009C58.472 20.4938 57.0141 20.7402 55.2993 20.7402H44.8859ZM50.4948 16.754H53.9622C55.1784 16.754 56.0736 16.5509 56.6477 16.1446C57.2294 15.7383 57.5202 15.1722 57.5202 14.4462C57.5202 13.9201 57.3805 13.4672 57.101 13.0875C56.8214 12.7012 56.4249 12.4049 55.9112 12.1984C55.3975 11.9853 54.7818 11.8787 54.0642 11.8787H50.4948V16.754ZM50.4948 8.69172H53.5996C54.2115 8.69172 54.7554 8.60181 55.2313 8.42198C55.7072 8.24215 56.0774 7.9824 56.3418 7.64272C56.6137 7.30304 56.7497 6.89344 56.7497 6.41389C56.7497 5.72788 56.474 5.18839 55.9225 4.79543C55.371 4.40247 54.627 4.206 53.6902 4.206H50.4948V8.69172Z" fill="#141414"/>
<path d="M85.4744 6.41389C85.3988 5.68126 85.0627 5.1118 84.4659 4.70552C83.8767 4.29258 83.0344 4.08611 81.939 4.08611C81.2138 4.08611 80.6095 4.16936 80.126 4.33587C79.6426 4.50238 79.28 4.73216 79.0382 5.02521C78.7965 5.31161 78.6719 5.64129 78.6643 6.01427C78.6492 6.32065 78.7172 6.59039 78.8683 6.8235C79.0269 7.05661 79.2535 7.26308 79.5481 7.44291C79.8503 7.61608 80.2129 7.76927 80.6359 7.90247C81.059 8.03568 81.5349 8.15224 82.0637 8.25214L84.058 8.65176C85.2062 8.87155 86.2185 9.16461 87.0947 9.53092C87.9786 9.89724 88.7189 10.3335 89.3157 10.8397C89.92 11.3459 90.377 11.9286 90.6867 12.588C90.9965 13.2474 91.1551 13.9867 91.1627 14.8059C91.1551 16.098 90.785 17.2069 90.0522 18.1327C89.3194 19.0585 88.2656 19.7678 86.8908 20.2607C85.5235 20.7536 83.8729 21 81.939 21C79.9976 21 78.3055 20.7436 76.8626 20.2307C75.4198 19.7179 74.298 18.9386 73.4973 17.893C72.6965 16.8473 72.2848 15.5252 72.2621 13.9267H77.6332C77.6785 14.5861 77.8787 15.1356 78.2337 15.5752C78.5888 16.0147 79.076 16.3478 79.6954 16.5742C80.3224 16.8007 81.0476 16.9139 81.871 16.9139C82.6265 16.9139 83.2686 16.824 83.7973 16.6441C84.3337 16.4643 84.7454 16.2146 85.0325 15.8949C85.3195 15.5752 85.4668 15.2088 85.4744 14.7959C85.4668 14.4096 85.3308 14.0799 85.0665 13.8069C84.8021 13.5271 84.3941 13.2873 83.8427 13.0875C83.2988 12.8811 82.6038 12.6912 81.7577 12.5181L79.3328 12.0186C77.3234 11.6123 75.7408 10.9562 74.5851 10.0504C73.4293 9.13796 72.8552 7.9058 72.8627 6.35395C72.8552 5.08849 73.2404 3.97954 74.0185 3.02712C74.7966 2.07469 75.873 1.33207 77.2479 0.79924C78.6227 0.266413 80.1902 0 81.9504 0C83.7483 0 85.3082 0.269743 86.6302 0.809229C87.9597 1.34206 88.9908 2.09134 89.7236 3.05709C90.4563 4.02284 90.8303 5.14177 90.8454 6.41389H85.4744Z" fill="#141414"/>
<path d="M93.9955 20.7402V0.279734H110.176V4.29591H99.6044V8.49191H109.349V12.5181H99.6044V16.7241H110.176V20.7402H93.9955Z" fill="#141414"/>
<path d="M133.44 0.279734V20.7402H128.68L119.445 8.93149H119.298V20.7402H113.689V0.279734H118.516L127.649 12.0685H127.842V0.279734H133.44Z" fill="#141414"/>
<path d="M145.544 20.7402H136.966V0.279734H145.533C147.897 0.279734 149.933 0.689344 151.64 1.50856C153.355 2.32112 154.677 3.49334 155.606 5.02521C156.535 6.55043 157 8.37536 157 10.5C157 12.6313 156.535 14.4629 155.606 15.9948C154.685 17.5266 153.366 18.7022 151.652 19.5214C149.937 20.334 147.901 20.7402 145.544 20.7402ZM142.575 16.5243H145.329C146.628 16.5243 147.727 16.3311 148.626 15.9448C149.533 15.5519 150.216 14.9158 150.677 14.0366C151.146 13.1508 151.38 11.9719 151.38 10.5C151.38 9.02807 151.146 7.85585 150.677 6.98335C150.209 6.10419 149.518 5.47146 148.604 5.08516C147.697 4.6922 146.579 4.49572 145.249 4.49572H142.575V16.5243Z" fill="#141414"/>
</svg>
